<?xml version="1.0" standalone="no"?>
<!DOCTYPE svg PUBLIC "-//W3C//DTD SVG 20010904//EN"
 "http://www.w3.org/TR/2001/REC-SVG-20010904/DTD/svg10.dtd">
<svg version="1.0" xmlns="http://www.w3.org/2000/svg"
 width="900.000000pt" height="920.000000pt" viewBox="0 0 900.000000 920.000000"
 preserveAspectRatio="xMidYMid meet">

<g transform="translate(0.000000,920.000000) scale(0.100000,-0.100000)"
fill="#FF8533" stroke="none">
<path d="M5630 8433 c-8 -2 -22 -7 -30 -10 -8 -3 -28 -7 -45 -9 -16 -1 -79
-12 -140 -24 -60 -12 -141 -26 -180 -31 -86 -13 -149 -50 -177 -104 -6 -12 6
-5 28 17 45 42 96 65 161 73 25 3 48 7 52 9 3 2 27 7 52 10 25 3 95 16 155 28
60 12 164 23 232 25 70 3 120 9 116 14 -5 9 -197 11 -224 2z"/>
<path d="M6685 8269 c-48 -11 -103 -54 -128 -100 l-18 -34 32 38 c45 54 96 77
168 77 61 0 88 13 48 24 -28 7 -52 6 -102 -5z m88 -6 c-7 -2 -19 -2 -25 0 -7
3 -2 5 12 5 14 0 19 -2 13 -5z"/>
<path d="M5655 8181 c-49 -10 -161 -30 -247 -46 -121 -22 -158 -32 -158 -43 0
-30 22 -147 30 -155 4 -4 40 -1 81 7 182 36 391 67 398 60 5 -5 16 -52 25
-104 9 -52 21 -115 26 -140 5 -25 17 -92 25 -150 26 -166 45 -253 61 -277 21
-33 61 -49 139 -57 39 -4 110 -16 160 -26 120 -27 167 -26 199 3 14 12 96 146
182 297 86 151 160 279 164 283 7 8 329 -170 358 -198 11 -10 11 -17 3 -34 -7
-11 -10 -21 -7 -21 5 0 116 175 116 184 0 3 -5 6 -10 6 -6 0 -108 56 -227 125
-119 69 -219 125 -223 125 -4 0 -79 -125 -166 -277 -87 -153 -171 -290 -186
-305 -31 -33 -65 -35 -163 -13 -36 9 -114 22 -173 30 -121 17 -148 28 -168 66
-7 15 -40 174 -71 353 -32 181 -62 326 -68 325 -5 -1 -50 -9 -100 -18z"/>
<path d="M6510 8090 c-6 -11 -8 -20 -6 -20 3 0 10 9 16 20 6 11 8 20 6 20 -3
0 -10 -9 -16 -20z"/>
<path d="M5017 8064 c-10 -10 -9 -142 2 -184 5 -19 14 -69 21 -110 7 -41 16
-88 20 -105 17 -59 23 -155 10 -155 -14 0 -123 -71 -117 -76 5 -6 167 77 167
85 0 3 -9 56 -21 116 -11 61 -32 183 -48 273 -15 89 -30 160 -34 156z"/>
<path d="M7240 8015 c14 -8 30 -14 35 -14 6 0 -1 6 -15 14 -14 8 -29 14 -35
14 -5 0 1 -6 15 -14z"/>
<path d="M4307 7847 c-20 -7 -50 -24 -66 -40 -55 -52 -193 -219 -172 -208 11
7 21 15 21 19 0 4 17 27 38 50 20 24 53 61 72 84 39 46 119 88 168 88 17 0 32
5 32 10 0 13 -45 11 -93 -3z"/>
<path d="M6140 7687 c55 -13 69 -13 57 -1 -4 4 -30 8 -59 10 l-53 4 55 -13z"/>
<path d="M7417 7683 c-5 -13 -73 -135 -153 -273 l-145 -250 28 -35 c15 -19 30
-35 33 -35 3 0 17 22 31 48 14 26 61 108 104 182 43 74 85 149 94 165 15 29
27 146 19 195 -4 25 -4 25 -11 3z"/>
<path d="M6244 7668 c12 -7 21 -7 28 0 6 6 0 10 -18 10 -23 0 -24 -2 -10 -10z"/>
<path d="M4270 7473 c-58 -70 -133 -159 -168 -199 l-62 -73 45 -37 c39 -32 48
-35 59 -23 13 15 203 241 222 265 6 8 14 14 18 14 3 0 41 -30 84 -66 330 -279
435 -364 457 -370 38 -9 71 2 149 55 39 27 108 67 152 89 45 23 93 55 108 72
24 29 26 39 26 118 l0 86 -29 -28 c-16 -15 -52 -38 -79 -51 -28 -13 -97 -53
-154 -89 -122 -76 -145 -83 -187 -62 -17 9 -117 89 -224 179 -278 234 -294
247 -303 247 -5 0 -56 -57 -114 -127z"/>
<path d="M4019 7553 c-13 -16 -12 -17 4 -4 16 13 21 21 13 21 -2 0 -10 -8 -17
-17z"/>
<path d="M7070 7550 c-6 -11 -8 -20 -6 -20 3 0 10 9 16 20 6 11 8 20 6 20 -3
0 -10 -9 -16 -20z"/>
<path d="M3950 7469 c-27 -33 -50 -63 -50 -67 1 -8 59 56 91 101 37 49 11 28
-41 -34z"/>
<path d="M3875 7379 c-4 -6 -5 -12 -2 -15 2 -3 7 2 10 11 7 17 1 20 -8 4z"/>
<path d="M6951 7343 c-10 -26 -10 -27 4 -9 8 11 15 23 15 28 0 15 -7 8 -19
-19z"/>
<path d="M7735 7226 c-33 -13 -71 -28 -85 -33 -14 -6 -74 -27 -135 -48 -60
-21 -134 -48 -164 -61 -29 -13 -59 -24 -66 -24 -7 0 -19 -8 -26 -17 -12 -15
-12 -16 6 -9 11 4 67 25 125 46 169 61 332 120 373 136 20 8 61 14 90 14 37 0
48 3 37 10 -24 16 -91 10 -155 -14z"/>
<path d="M3812 7075 c6 -164 2 -159 348 -450 45 -38 89 -76 97 -84 18 -17 24
-10 53 62 19 50 21 60 9 71 -13 13 -171 146 -367 310 -64 54 -89 83 -113 130
l-30 61 3 -100z"/>
<path d="M6861 7033 c-1 -45 4 -94 10 -110 5 -15 36 -55 68 -88 32 -33 86 -97
121 -143 34 -45 71 -87 82 -93 39 -21 83 -12 238 45 85 31 224 82 308 113 83
31 154 54 156 52 6 -7 106 -292 106 -303 0 -6 -37 -24 -83 -39 -45 -16 -122
-44 -172 -62 -49 -18 -136 -50 -192 -70 -56 -21 -108 -44 -114 -51 -14 -18 -8
-18 33 0 93 41 517 192 560 200 41 8 55 21 40 39 -6 7 -47 114 -92 240 -46
125 -87 227 -93 227 -6 0 -147 -49 -314 -110 -166 -60 -314 -110 -327 -110
-45 0 -75 22 -127 94 -29 39 -80 100 -113 136 -34 36 -69 76 -78 90 -17 24
-17 23 -17 -57z"/>
<path d="M4275 7020 c10 -11 20 -20 23 -20 3 0 -3 9 -13 20 -10 11 -20 20 -23
20 -3 0 3 -9 13 -20z"/>
<path d="M4515 6820 c10 -11 20 -20 23 -20 3 0 -3 9 -13 20 -10 11 -20 20 -23
20 -3 0 3 -9 13 -20z"/>
<path d="M6775 6769 c-24 -9 -1284 -1269 -1270 -1269 5 0 290 280 632 622 343
343 631 626 640 630 10 3 33 7 52 7 19 1 32 3 30 5 -9 9 -65 13 -84 5z"/>
<path d="M4533 6560 c-22 -58 -51 -137 -62 -177 -35 -118 -15 -112 -422 -115
l-344 -3 -3 -260 -2 -260 247 0 c137 0 286 3 333 5 47 3 -61 7 -240 10 l-325
5 -3 158 -3 157 333 0 c417 0 388 -11 441 165 14 44 41 120 61 168 34 80 37
95 34 170 l-3 82 -42 -105z"/>
<path d="M6290 5947 c-423 -426 -652 -649 -685 -668 -61 -35 -127 -39 -185 -9
-34 18 -600 575 -608 600 -2 6 -8 10 -13 10 -15 0 -11 -158 5 -188 21 -40 575
-587 614 -607 47 -23 130 -21 178 4 53 27 1321 1298 1329 1331 3 14 5 57 3 95
l-3 70 -635 -638z"/>
<path d="M3614 6499 c-23 -11 -50 -29 -60 -40 -14 -16 -5 -13 40 10 l58 31
304 0 c196 0 304 4 304 10 0 6 -107 10 -302 10 -285 0 -305 -1 -344 -21z"/>
<path d="M8233 6409 c-15 -34 -60 -87 -87 -101 -11 -7 -145 -58 -296 -113
l-275 -101 -3 -92 c-2 -84 -1 -92 16 -92 10 0 22 4 28 9 5 5 97 41 204 80 292
107 308 114 346 145 19 15 46 50 60 77 21 43 24 61 22 132 -3 71 -5 79 -15 56z"/>
<path d="M7343 5990 c0 -127 0 -131 8 -60 5 42 5 101 0 135 -7 52 -9 41 -8
-75z"/>
<path d="M4836 6035 c-14 -13 -26 -30 -26 -36 0 -7 13 -1 28 14 23 22 38 27
78 27 35 0 45 3 34 10 -29 19 -86 11 -114 -15z"/>
<path d="M7800 5840 c0 -5 5 -10 11 -10 5 0 7 5 4 10 -3 6 -8 10 -11 10 -2 0
-4 -4 -4 -10z"/>
<path d="M7830 5832 c0 -4 21 -16 47 -25 55 -20 51 -12 -7 14 -22 10 -40 15
-40 11z"/>
<path d="M7340 5709 c0 -127 16 -150 140 -192 25 -9 144 -52 265 -96 121 -44
222 -77 226 -73 3 4 16 36 29 72 12 36 25 71 27 78 3 6 -1 12 -9 12 -17 0
-576 203 -617 225 -17 8 -37 28 -45 43 -14 25 -15 22 -16 -69z"/>
<path d="M8060 5740 c60 -25 87 -25 31 0 -24 11 -51 20 -60 19 -9 0 4 -9 29
-19z"/>
<path d="M4400 5736 c0 -2 7 -7 16 -10 8 -3 12 -2 9 4 -6 10 -25 14 -25 6z"/>
<path d="M3480 5591 c0 -76 4 -103 21 -138 22 -44 77 -95 123 -113 17 -6 147
-10 332 -11 250 0 304 -3 304 -14 0 -25 18 -26 47 -1 l27 24 -21 48 c-12 27
-29 66 -37 87 l-15 37 -293 0 c-176 0 -308 4 -331 11 -49 13 -115 73 -138 124
l-19 40 0 -94z"/>
<path d="M8238 5420 c-4 -8 -44 -116 -88 -239 -44 -123 -88 -240 -96 -260 -20
-48 -70 -99 -119 -122 -75 -35 -112 -27 -409 81 -150 55 -278 100 -283 100 -8
0 -123 -135 -123 -145 0 -2 14 -27 31 -55 l31 -50 21 27 c11 16 23 31 27 36 4
4 51 -9 106 -29 418 -153 460 -166 509 -166 79 1 146 37 188 103 9 13 61 149
117 301 99 273 101 278 98 355 -2 43 -6 71 -10 63z"/>
<path d="M4115 5183 c-71 -60 -158 -137 -194 -172 -47 -45 -30 -33 57 40 68
57 138 115 156 129 59 46 129 110 119 110 -5 0 -67 -48 -138 -107z"/>
<path d="M4567 5248 c-5 -9 -125 -114 -267 -234 l-259 -217 45 -53 46 -53 209
175 c115 96 216 188 224 204 12 22 15 53 13 113 -2 51 -6 76 -11 65z"/>
<path d="M7143 5245 c-22 -15 -143 -169 -143 -181 0 -4 21 19 46 52 25 32 56
71 67 86 12 15 27 28 34 28 13 0 28 19 21 25 -2 3 -14 -2 -25 -10z"/>
<path d="M7195 5250 c-3 -4 10 -10 28 -13 17 -2 57 -14 87 -26 37 -14 49 -16
35 -6 -10 8 -33 19 -50 24 -16 5 -45 14 -62 20 -18 5 -35 6 -38 1z"/>
<path d="M7396 5181 c5 -5 47 -23 94 -39 47 -17 94 -33 104 -38 12 -4 17 -4
13 3 -3 5 -25 16 -49 23 -24 7 -47 17 -53 21 -5 4 -27 10 -48 14 -20 4 -40 11
-43 16 -3 5 -10 9 -17 9 -7 0 -7 -3 -1 -9z"/>
<path d="M7690 5076 c0 -2 7 -7 16 -10 8 -3 12 -2 9 4 -6 10 -25 14 -25 6z"/>
<path d="M6930 4995 c-29 -30 -52 -56 -49 -58 2 -1 28 23 58 55 69 73 63 76
-9 3z"/>
<path d="M7805 5030 c3 -5 8 -10 11 -10 2 0 4 5 4 10 0 6 -5 10 -11 10 -5 0
-7 -4 -4 -10z"/>
<path d="M4883 4837 c-52 -42 -446 -372 -477 -399 -17 -15 -26 -27 -21 -27 6
0 93 70 195 155 344 290 339 286 396 277 22 -3 26 -2 14 6 -26 18 -77 12 -107
-12z"/>
<path d="M6860 4751 c0 -48 6 -96 14 -116 8 -19 64 -119 125 -224 61 -104 111
-194 111 -200 0 -6 -5 -11 -11 -11 -6 0 -41 -18 -77 -39 -37 -21 -89 -51 -117
-66 -80 -45 -171 -105 -158 -105 6 0 69 34 140 75 70 42 169 95 219 119 51 25
94 49 98 54 3 5 -3 20 -13 33 -10 13 -86 143 -170 288 -83 146 -153 267 -156
269 -3 3 -5 -32 -5 -77z"/>
<path d="M5090 4780 c0 -5 5 -10 11 -10 5 0 7 5 4 10 -3 6 -8 10 -11 10 -2 0
-4 -4 -4 -10z"/>
<path d="M5132 4754 c10 -10 20 -15 24 -12 3 4 -5 12 -18 18 -22 12 -22 12 -6
-6z"/>
<path d="M3810 4692 c0 -39 5 -94 11 -123 12 -54 40 -93 231 -318 176 -207
192 -224 232 -242 54 -24 150 -25 197 -1 19 10 104 76 188 147 85 72 185 155
223 187 l68 56 60 -35 c32 -19 62 -35 67 -35 9 1 32 102 33 145 0 15 -5 27
-11 27 -6 0 -42 18 -80 41 l-69 41 -52 -43 c-29 -24 -129 -109 -223 -188 -93
-79 -188 -152 -210 -162 -58 -27 -130 -24 -192 6 -42 21 -80 61 -243 257 -106
127 -198 246 -205 264 -19 56 -25 51 -25 -24z"/>
<path d="M5177 4729 c7 -7 15 -10 18 -7 3 3 -2 9 -12 12 -14 6 -15 5 -6 -5z"/>
<path d="M6235 4604 c-33 -8 -113 -23 -178 -33 -97 -15 -123 -22 -140 -41
l-22 -23 25 15 c14 9 48 19 75 22 28 4 70 9 95 12 25 3 83 15 130 26 47 11 96
20 109 20 17 0 19 3 10 9 -18 11 -32 10 -104 -7z"/>
<path d="M5348 4470 c-5 -13 -84 -460 -96 -547 l-4 -31 54 0 c49 0 51 1 21 9
-27 8 -33 15 -33 37 0 29 19 147 51 312 18 95 24 258 7 220z"/>
<path d="M6171 4334 c-41 -7 -78 -17 -81 -21 -4 -5 -24 -107 -44 -228 -56
-331 -64 -364 -97 -411 -36 -53 -114 -94 -177 -94 -79 0 -590 93 -633 115 -40
21 -98 93 -105 132 -12 65 -27 18 -22 -70 8 -149 73 -241 190 -266 28 -6 87
-18 132 -26 486 -87 470 -85 549 -35 82 52 105 112 147 385 11 72 24 150 29
175 5 25 13 63 16 85 4 22 11 45 16 52 10 11 176 40 183 32 1 -2 66 -114 142
-248 76 -134 151 -256 166 -272 44 -46 100 -69 165 -69 64 1 88 10 248 105 55
32 154 89 220 127 143 83 160 98 191 163 19 40 24 67 24 135 l0 85 -31 -53
c-35 -61 -41 -66 -354 -245 -239 -138 -276 -151 -360 -127 -79 22 -114 66
-269 335 -79 138 -150 251 -157 251 -8 1 -47 -5 -88 -12z"/>
<path d="M1268 4263 c12 -2 30 -2 40 0 9 3 -1 5 -23 4 -22 0 -30 -2 -17 -4z"/>
<path d="M1753 4263 c9 -2 23 -2 30 0 6 3 -1 5 -18 5 -16 0 -22 -2 -12 -5z"/>
<path d="M1145 4246 c-107 -34 -245 -139 -288 -218 -12 -20 -13 -26 -3 -14 72
89 180 181 224 191 9 3 51 15 92 29 53 17 66 24 45 25 -16 0 -48 -6 -70 -13z"/>
<path d="M1815 4250 c11 -5 31 -9 45 -9 23 0 23 1 5 9 -11 5 -31 9 -45 9 -23
0 -23 -1 -5 -9z"/>
<path d="M1898 4233 c7 -3 16 -2 19 1 4 3 -2 6 -13 5 -11 0 -14 -3 -6 -6z"/>
<path d="M1940 4220 c8 -5 20 -10 25 -10 6 0 3 5 -5 10 -8 5 -19 10 -25 10 -5
0 -3 -5 5 -10z"/>
<path d="M2005 4193 c6 -6 42 -36 80 -67 58 -48 62 -50 21 -12 -42 40 -129
107 -101 79z"/>
<path d="M1243 4010 c-98 -21 -187 -93 -231 -189 -22 -47 -27 -73 -29 -161
l-4 -105 18 50 c29 80 80 142 152 185 58 35 106 40 374 40 300 0 325 -4 412
-70 35 -25 61 -57 83 -98 l32 -60 -2 -986 c-2 -657 0 -982 7 -975 7 7 10 372
10 1057 l0 1047 -23 57 c-32 80 -97 148 -174 184 l-63 29 -260 2 c-143 1 -279
-2 -302 -7z"/>
<path d="M5405 3882 c10 -11 196 -45 204 -37 6 6 -13 11 -94 24 -38 7 -81 15
-95 18 -17 4 -22 2 -15 -5z"/>
<path d="M5658 3833 c12 -2 30 -2 40 0 9 3 -1 5 -23 4 -22 0 -30 -2 -17 -4z"/>
<path d="M5750 3820 c-13 -8 -12 -10 3 -10 9 0 17 5 17 10 0 12 -1 12 -20 0z"/>
<path d="M2293 3764 c0 -13 87 -15 844 -13 464 1 843 5 843 9 0 16 -186 20
-920 20 -687 0 -767 -2 -767 -16z m90 -1 c-13 -2 -33 -2 -45 0 -13 2 -3 4 22
4 25 0 35 -2 23 -4z m380 0 c-23 -2 -64 -2 -90 0 -26 2 -7 3 42 3 50 0 71 -1
48 -3z m395 0 c-27 -2 -69 -2 -95 0 -27 2 -5 3 47 3 52 0 74 -1 48 -3z"/>
<path d="M4000 3750 c0 -5 8 -10 18 -10 9 -1 35 -7 57 -15 49 -17 60 -11 14 8
-53 21 -89 29 -89 17z"/>
<path d="M4130 3706 c0 -3 15 -12 33 -20 l32 -16 -24 20 c-21 19 -41 26 -41
16z"/>
<path d="M2290 2836 c0 -679 0 -685 20 -683 23 1 28 17 5 17 -13 0 -15 72 -15
585 l0 586 838 -3 837 -3 51 -27 c68 -36 923 -891 940 -940 l12 -33 12 45 c14
51 8 115 -17 168 -24 55 -871 902 -937 939 l-51 28 -847 3 -848 2 0 -684z"/>
<path d="M7655 3225 c-44 -12 -118 -32 -165 -44 -47 -12 -119 -31 -160 -42
-41 -12 -88 -23 -105 -25 -16 -2 -79 -18 -140 -35 -60 -17 -128 -35 -150 -39
-84 -18 -131 -30 -165 -40 -19 -6 -46 -13 -59 -16 -55 -11 -864 -215 -1023
-258 -31 -8 -67 -17 -80 -20 -79 -15 -379 -94 -387 -101 -15 -15 35 -5 334 71
182 47 356 90 388 96 31 6 57 14 57 18 0 3 15 7 33 8 17 1 43 6 57 11 26 9
222 60 410 106 58 14 328 83 600 152 272 69 541 135 598 146 56 12 102 25 102
29 0 14 -63 7 -145 -17z"/>
<path d="M3724 3047 c-20 -11 -53 -47 -54 -59 0 -3 14 7 32 24 28 26 38 29 79
26 55 -3 53 8 -2 15 -20 2 -45 0 -55 -6z"/>
<path d="M7455 2915 c-181 -46 -672 -169 -1090 -275 -418 -105 -848 -214 -955
-241 -107 -27 -195 -49 -196 -49 -1 0 -6 -15 -9 -32 -25 -116 -129 -237 -252
-296 -71 -33 -87 -37 -178 -40 -118 -4 -192 15 -276 71 -30 20 -231 213 -446
430 l-393 393 0 -80 c1 -45 6 -91 13 -103 23 -41 781 -796 832 -828 73 -46
127 -65 208 -71 213 -18 405 105 480 307 23 61 26 64 68 75 85 23 1286 326
1419 359 74 18 358 90 631 158 455 115 499 125 541 116 50 -11 122 -65 131
-99 5 -20 3 -22 -83 -88 -16 -13 -30 -29 -30 -35 0 -8 3 -9 8 -1 4 5 23 20 42
32 96 58 125 157 75 257 -14 30 -41 66 -58 79 -33 25 -96 46 -132 45 -11 0
-168 -38 -350 -84z"/>
<path d="M8233 2692 c-44 -186 -228 -348 -332 -292 -12 6 -31 26 -42 43 l-20
32 3 -103 3 -104 37 -34 c22 -20 48 -34 63 -34 58 0 162 72 217 150 55 78 91
215 86 325 l-3 70 -12 -53z"/>
<path d="M968 2514 c-22 -40 -80 -68 -121 -60 -17 4 -46 21 -64 38 l-33 32 0
-93 0 -94 34 -32 c45 -42 77 -50 123 -29 61 30 90 107 81 224 l-3 45 -17 -31z"/>
<path d="M7530 2432 c-19 -6 -394 -194 -595 -297 -82 -43 -310 -158 -505 -257
-365 -185 -771 -392 -1035 -528 -199 -102 -341 -146 -457 -142 -31 1 -67 -2
-80 -8 -17 -7 -2 -9 57 -6 172 7 307 42 439 115 70 38 301 156 1001 511 198
100 455 231 570 290 561 287 615 312 656 308 21 -2 35 -1 31 3 -11 10 -65 17
-82 11z"/>
<path d="M1550 2335 c-25 -26 -18 -35 9 -11 9 8 32 19 51 24 l35 10 -36 1
c-26 1 -42 -6 -59 -24z"/>
<path d="M4924 2299 c-44 -47 -98 -69 -176 -69 -50 0 -77 5 -104 20 -20 12
-39 19 -42 16 -3 -3 19 -17 48 -30 101 -47 226 -20 288 62 31 41 25 41 -14 1z"/>
<path d="M7659 2242 c-19 -32 54 6 -1009 -532 -470 -238 -953 -484 -1072 -546
-328 -173 -427 -199 -708 -191 -141 4 -190 9 -250 27 -93 27 -229 90 -357 166
-97 57 -685 350 -970 482 -280 131 -394 165 -767 231 -126 23 -230 41 -232 41
-2 0 -4 -53 -4 -118 0 -153 -12 -218 -61 -319 -53 -111 -142 -199 -253 -253
-120 -57 -161 -62 -491 -58 -289 4 -290 4 -360 31 -95 38 -154 78 -220 149
-58 63 -104 142 -126 218 -23 82 -31 70 -27 -40 4 -88 10 -117 36 -178 41 -99
95 -175 165 -234 68 -56 108 -78 203 -110 66 -22 81 -23 369 -23 297 1 301 1
372 27 159 57 264 149 330 288 51 107 60 145 69 303 4 70 11 127 16 127 26 0
435 -74 503 -91 101 -26 258 -76 310 -99 257 -115 1012 -485 1126 -553 83 -49
237 -128 284 -145 114 -42 184 -52 377 -52 160 0 207 4 273 20 104 27 176 54
250 95 71 39 297 155 805 412 206 105 506 257 665 338 160 81 387 196 505 255
118 60 223 116 232 127 26 29 40 92 36 165 -3 67 -3 67 -19 40z"/>
<path d="M790 2225 c-19 -19 -31 -38 -27 -42 4 -3 7 -1 7 5 0 6 16 22 36 36
19 13 31 26 26 30 -5 3 -24 -10 -42 -29z"/>
<path d="M1199 2173 l-24 -27 27 17 c16 10 48 17 75 17 35 0 44 3 33 10 -31
20 -85 11 -111 -17z"/>
<path d="M1512 2102 l3 -104 37 -31 c20 -18 47 -39 59 -48 l23 -16 -41 -22
c-45 -23 -111 -27 -146 -10 -21 9 -21 9 -4 -5 11 -8 37 -18 58 -21 56 -10 141
32 160 77 31 75 1 156 -71 197 -23 13 -51 37 -61 55 l-20 31 3 -103z"/>
<path d="M1330 2176 c0 -2 8 -10 18 -17 15 -13 16 -12 3 4 -13 16 -21 21 -21
13z"/>
<path d="M2410 2141 c13 -7 97 -22 210 -37 75 -10 -12 16 -104 31 -106 17
-129 19 -106 6z"/>
<path d="M2661 2096 c2 -2 22 -6 44 -9 28 -5 34 -4 20 3 -19 8 -73 14 -64 6z"/>
<path d="M2780 2071 c19 -5 67 -16 105 -25 39 -8 81 -18 95 -21 21 -6 22 -5 7
5 -26 17 -120 39 -185 45 -45 3 -50 3 -22 -4z"/>
<path d="M1375 2017 c-8 -20 0 -86 12 -98 7 -7 6 63 -1 101 -2 12 -4 11 -11
-3z"/>
<path d="M3110 1981 c73 -30 99 -33 45 -6 -27 14 -59 25 -70 24 -11 0 -1 -8
25 -18z"/>
<path d="M1144 1850 c4 -154 24 -214 97 -295 59 -64 101 -91 177 -116 40 -12
49 -18 32 -19 l-25 -2 25 -7 c14 -4 54 -4 90 -1 36 4 56 8 45 9 -11 1 5 10 35
20 80 26 112 45 164 97 79 78 116 180 115 311 l0 78 -23 -61 c-38 -103 -105
-176 -205 -223 -48 -22 -69 -26 -151 -26 -84 1 -102 4 -155 30 -110 53 -183
146 -211 269 l-14 61 4 -125z"/>
<path d="M3455 1836 c24 -16 95 -47 95 -41 0 5 -100 55 -109 55 -3 0 3 -6 14
-14z"/>
<path d="M3616 1756 c22 -16 124 -57 124 -50 0 4 -129 64 -139 64 -3 0 4 -6
15 -14z"/>
<path d="M3750 1696 c0 -3 14 -12 30 -21 17 -9 30 -13 30 -11 0 3 -13 12 -30
21 -16 9 -30 13 -30 11z"/>
<path d="M3960 1585 c14 -8 30 -14 35 -14 6 0 -1 6 -15 14 -14 8 -29 14 -35
14 -5 0 1 -6 15 -14z"/>
<path d="M1979 1534 c-36 -39 -98 -79 -159 -102 -39 -15 -48 -21 -30 -21 54
-1 183 79 211 130 13 26 7 24 -22 -7z"/>
<path d="M1145 1455 c17 -14 36 -25 44 -25 17 0 16 1 -34 28 l-40 22 30 -25z"/>
<path d="M4200 1472 c0 -9 110 -65 116 -59 2 2 -23 17 -56 35 -33 17 -60 28
-60 24z"/>
<path d="M4454 1326 c11 -9 24 -16 30 -16 12 0 7 5 -24 19 -24 11 -24 11 -6
-3z"/>
<path d="M4507 1299 c7 -7 15 -10 18 -7 3 3 -2 9 -12 12 -14 6 -15 5 -6 -5z"/>
<path d="M4547 1279 c7 -7 15 -10 18 -7 3 3 -2 9 -12 12 -14 6 -15 5 -6 -5z"/>
<path d="M4675 1230 c11 -5 29 -9 40 -9 l20 0 -20 9 c-11 5 -29 9 -40 9 l-20
0 20 -9z"/>
<path d="M4808 1203 c7 -3 16 -2 19 1 4 3 -2 6 -13 5 -11 0 -14 -3 -6 -6z"/>
</g>
</svg>
